<svg xmlns="http://www.w3.org/2000/svg" xmlns:xlink="http://www.w3.org/1999/xlink" version="1.0" x="0px" y="0px" viewBox="0 0 100 125" enable-background="new 0 0 100 100" xml:space="preserve"><g><circle cx="48.92" cy="51.69" r="5.22"/><path d="M48.92,58.68c-5.51,0-9.98,4.47-9.98,9.98H58.9C58.9,63.15,54.43,58.68,48.92,58.68z"/><path d="M56.85,51.75c-0.21,0.51,0.02,1.1,0.53,1.31c0.5,0.21,1.1-0.02,1.31-0.53c0.31-0.73,0.54-1.5,0.67-2.28   c0.11-0.61,0.16-1.23,0.16-1.85c0-5.85-4.76-10.61-10.61-10.61S38.31,42.55,38.31,48.4c0,0.72,0.07,1.44,0.22,2.14   c0.14,0.68,0.35,1.35,0.62,1.99c0.16,0.38,0.53,0.61,0.92,0.61c0.13,0,0.26-0.03,0.39-0.08c0.51-0.21,0.75-0.8,0.53-1.31   c-0.22-0.52-0.39-1.06-0.5-1.61c-0.12-0.57-0.17-1.15-0.17-1.74c0-4.75,3.86-8.61,8.61-8.61c4.75,0,8.61,3.86,8.61,8.61   c0,0.5-0.04,1.01-0.13,1.5C57.29,50.54,57.1,51.16,56.85,51.75z"/><path d="M48.92,31.88c-9.11,0-16.51,7.41-16.51,16.51c0,4.56,1.82,8.8,5.11,11.95c0.4,0.38,1.03,0.37,1.41-0.03   c0.38-0.4,0.37-1.03-0.03-1.41c-2.9-2.77-4.49-6.49-4.49-10.5c0-8,6.51-14.51,14.51-14.51c8,0,14.51,6.51,14.51,14.51   c0,4.09-1.74,8.01-4.77,10.76c-0.41,0.37-0.44,1-0.07,1.41c0.2,0.22,0.47,0.33,0.74,0.33c0.24,0,0.48-0.09,0.67-0.26   c3.45-3.13,5.43-7.59,5.43-12.24C65.43,39.29,58.03,31.88,48.92,31.88z"/><path d="M48.92,25.5c-12.63,0-22.9,10.27-22.9,22.9c0,7.62,3.77,14.72,10.09,18.99c0.17,0.12,0.37,0.17,0.56,0.17   c0.32,0,0.64-0.15,0.83-0.44c0.31-0.46,0.19-1.08-0.27-1.39c-5.77-3.9-9.21-10.38-9.21-17.33c0-11.52,9.38-20.9,20.9-20.9   c11.52,0,20.9,9.38,20.9,20.9c0,6.95-3.44,13.43-9.21,17.33c-0.46,0.31-0.58,0.93-0.27,1.39c0.31,0.46,0.93,0.58,1.39,0.27   c6.32-4.27,10.09-11.37,10.09-18.99C71.82,35.77,61.54,25.5,48.92,25.5z"/></g></svg>